<mxfile host="app.diagrams.net" modified="2023-04-07T14:01:41.053Z" agent="5.0 (Windows NT 10.0; Win64; x64) AppleWebKit/537.36 (KHTML, like Gecko) Chrome/111.0.0.0 Safari/537.36" etag="7iKGW5W3e0AxHtfWP15u" version="21.0.8" type="github">
  <diagram name="Page-1" id="CD_2LesOiBzCNZa8VN1f">
    <mxGraphModel dx="1877" dy="1710" grid="1" gridSize="10" guides="1" tooltips="1" connect="1" arrows="1" fold="1" page="1" pageScale="1" pageWidth="827" pageHeight="1169" math="0" shadow="0">
      <root>
        <mxCell id="0" />
        <mxCell id="1" parent="0" />
        <mxCell id="FHg0I-sE7VqDqZhV5S5q-17" value="" style="rounded=0;whiteSpace=wrap;html=1;" vertex="1" parent="1">
          <mxGeometry x="40" width="700" height="450" as="geometry" />
        </mxCell>
        <mxCell id="FHg0I-sE7VqDqZhV5S5q-20" style="edgeStyle=orthogonalEdgeStyle;rounded=0;orthogonalLoop=1;jettySize=auto;html=1;" edge="1" parent="1" source="FHg0I-sE7VqDqZhV5S5q-2" target="FHg0I-sE7VqDqZhV5S5q-3">
          <mxGeometry relative="1" as="geometry" />
        </mxCell>
        <mxCell id="FHg0I-sE7VqDqZhV5S5q-2" value="End user" style="shape=umlActor;verticalLabelPosition=bottom;verticalAlign=top;html=1;outlineConnect=0;" vertex="1" parent="1">
          <mxGeometry x="-30" y="195" width="30" height="60" as="geometry" />
        </mxCell>
        <mxCell id="FHg0I-sE7VqDqZhV5S5q-5" style="edgeStyle=orthogonalEdgeStyle;rounded=0;orthogonalLoop=1;jettySize=auto;html=1;" edge="1" parent="1" source="FHg0I-sE7VqDqZhV5S5q-3" target="FHg0I-sE7VqDqZhV5S5q-4">
          <mxGeometry relative="1" as="geometry" />
        </mxCell>
        <mxCell id="FHg0I-sE7VqDqZhV5S5q-3" value="Front end" style="rounded=0;whiteSpace=wrap;html=1;" vertex="1" parent="1">
          <mxGeometry x="80" y="80" width="100" height="290" as="geometry" />
        </mxCell>
        <mxCell id="FHg0I-sE7VqDqZhV5S5q-14" style="edgeStyle=orthogonalEdgeStyle;rounded=0;orthogonalLoop=1;jettySize=auto;html=1;" edge="1" parent="1" source="FHg0I-sE7VqDqZhV5S5q-4" target="FHg0I-sE7VqDqZhV5S5q-13">
          <mxGeometry relative="1" as="geometry" />
        </mxCell>
        <mxCell id="FHg0I-sE7VqDqZhV5S5q-4" value="Server API" style="rounded=0;whiteSpace=wrap;html=1;" vertex="1" parent="1">
          <mxGeometry x="210" y="77.5" width="100" height="295" as="geometry" />
        </mxCell>
        <mxCell id="FHg0I-sE7VqDqZhV5S5q-22" style="edgeStyle=orthogonalEdgeStyle;rounded=0;orthogonalLoop=1;jettySize=auto;html=1;" edge="1" parent="1" source="FHg0I-sE7VqDqZhV5S5q-10" target="FHg0I-sE7VqDqZhV5S5q-21">
          <mxGeometry relative="1" as="geometry" />
        </mxCell>
        <mxCell id="FHg0I-sE7VqDqZhV5S5q-10" value="&lt;b&gt;Case Component&lt;/b&gt;" style="rounded=0;whiteSpace=wrap;html=1;strokeWidth=1;" vertex="1" parent="1">
          <mxGeometry x="370" y="220" width="120" height="160" as="geometry" />
        </mxCell>
        <mxCell id="FHg0I-sE7VqDqZhV5S5q-12" value="Database" style="rounded=0;whiteSpace=wrap;html=1;" vertex="1" parent="1">
          <mxGeometry x="560" y="40" width="110" height="380" as="geometry" />
        </mxCell>
        <mxCell id="FHg0I-sE7VqDqZhV5S5q-15" style="edgeStyle=orthogonalEdgeStyle;rounded=0;orthogonalLoop=1;jettySize=auto;html=1;" edge="1" parent="1" source="FHg0I-sE7VqDqZhV5S5q-13" target="FHg0I-sE7VqDqZhV5S5q-12">
          <mxGeometry relative="1" as="geometry">
            <Array as="points">
              <mxPoint x="540" y="120" />
              <mxPoint x="540" y="120" />
            </Array>
          </mxGeometry>
        </mxCell>
        <mxCell id="FHg0I-sE7VqDqZhV5S5q-23" style="edgeStyle=orthogonalEdgeStyle;rounded=0;orthogonalLoop=1;jettySize=auto;html=1;" edge="1" parent="1" source="FHg0I-sE7VqDqZhV5S5q-13" target="FHg0I-sE7VqDqZhV5S5q-21">
          <mxGeometry relative="1" as="geometry">
            <Array as="points">
              <mxPoint x="520" y="120" />
            </Array>
          </mxGeometry>
        </mxCell>
        <mxCell id="FHg0I-sE7VqDqZhV5S5q-13" value="Other Components" style="rounded=0;whiteSpace=wrap;html=1;" vertex="1" parent="1">
          <mxGeometry x="370" y="40" width="120" height="160" as="geometry" />
        </mxCell>
        <mxCell id="FHg0I-sE7VqDqZhV5S5q-18" value="&lt;h1&gt;Monolith Architecture&lt;/h1&gt;" style="text;html=1;strokeColor=none;fillColor=none;spacing=5;spacingTop=-20;whiteSpace=wrap;overflow=hidden;rounded=0;" vertex="1" parent="1">
          <mxGeometry x="40" width="290" height="130" as="geometry" />
        </mxCell>
        <mxCell id="FHg0I-sE7VqDqZhV5S5q-21" value="External Data" style="rounded=0;whiteSpace=wrap;html=1;" vertex="1" parent="1">
          <mxGeometry x="40" y="480" width="700" height="80" as="geometry" />
        </mxCell>
      </root>
    </mxGraphModel>
  </diagram>
</mxfile>
